<mxfile host="65bd71144e">
    <diagram name="Seite-1" id="Xdb-dtf4FLfjUzBOzaX1">
        <mxGraphModel dx="1452" dy="2683" grid="1" gridSize="10" guides="1" tooltips="1" connect="1" arrows="1" fold="1" page="1" pageScale="1" pageWidth="1169" pageHeight="827" math="0" shadow="0">
            <root>
                <mxCell id="0"/>
                <mxCell id="1" parent="0"/>
                <mxCell id="6wQIKPDwOlFDuVistNp--2" value="&lt;h1&gt;&lt;font style=&quot;font-size: 24px;&quot;&gt;TUM (POL20500) Politics of Big Data &lt;br&gt;&lt;/font&gt;&lt;a href=&quot;https://www.hfp.tum.de/politicaldatascience/team/simon-hegelich/&quot;&gt;Professur fÃ¼r Political Data Science (Prof. Hegelich)&lt;/a&gt;&lt;font style=&quot;font-size: 24px;&quot;&gt;&lt;br&gt;&lt;br&gt;- What is AGI? -&lt;/font&gt;&lt;br&gt;&lt;/h1&gt;&lt;p align=&quot;left&quot; style=&quot;font-size: 16px;&quot;&gt;Max Peter - max.peter@tum.de&lt;br&gt;&lt;a href=&quot;https://matrix.tum.de/#/@ge54lax:tum.de&quot;&gt;matrix chat @ge54lax:tum.de&lt;/a&gt;&lt;/p&gt;" style="text;whiteSpace=wrap;fillColor=#eeeeee;strokeColor=#36393d;html=1;align=center;movable=1;resizable=1;rotatable=1;deletable=1;editable=1;locked=0;connectable=1;rounded=1;" parent="1" vertex="1">
                    <mxGeometry x="240" y="-1570" width="650" height="200" as="geometry"/>
                </mxCell>
            </root>
        </mxGraphModel>
    </diagram>
</mxfile>